<svg width="1000" height="1000" xmlns="http://www.w3.org/2000/svg" xmlns:xlink="http://www.w3.org/1999/xlink"><g transform="translate(500,500)">
    <path stroke="yellow" stroke-width="5" fill="none" d="M0,-335L103.21167612123243,-317.65287644258126L195.73248901339355,-269.4026591268575L268.5936421324825,-195.1447037611011L314.7997068936958,-102.2846251381076L330,-2.0206672185931328e-14L312.8975938611055,101.66659114935767L265.3575741549828,192.79356275193115L192.20577749963874,264.5485571606078L100.73954016623289,310.04442431222003L3.980102097228898e-14,325L-100.12150617748291,308.1423112796298L-189.85463649046878,261.312489183108L-260.50347218873304,189.26685123817637L-305.2891417307443,99.19445519435817L-320,5.878304635907295e-14L-303.38702869815404,-98.57642120560817L-257.2674042112333,-186.91571022900638L-186.32792497671403,-256.4583872168583L-97.64937022248344,-300.5338591492685L-7.715274834628326e-14,-315L97.03133623373341,-298.63174611667824L183.976783967544,-253.2223192393586L252.41330224498353,-183.3889987152517L295.7785765677927,-96.10428525060874L310,-9.491012693391988e-14L293.87646353520245,95.48625126185865L249.1772342674839,181.0378577060816L180.45007245378932,248.3682172731088L94.55920027873402,291.02329398631696L1.1205518212198281e-13,305L-93.94116628998391,289.1211809537267L-178.09893144461927,245.13214929560914L-244.32313230123407,177.51114619232698L-286.26801140484116,93.0141153068593L-300,1.2858791391047208e-13L-284.36589837225097,-92.39608131810915L-241.0870643237344,-175.1600051831569L-174.57221993086463,-240.27804732935934L-91.46903033498458,-281.5127288233654L-1.4450832229938768e-13,-295L90.85099634623441,-279.6106157907752L172.22107892169453,-237.04197935185968L236.23296235748455,-171.6332936694023L276.7574462418896,-89.92394536310985L290,-1.598164072887296e-13L274.85533320929943,89.30591137435965L232.99689437998495,169.28215266023213L168.69436740793995,232.1878773856098L88.37886039123514,272.0021636604139L1.7451216887849784e-13,285L-87.76082640248441,270.1000506278238L-166.34322639876973,228.95180940811025L-228.14279241373538,165.75544114647718L-267.2468810789381,86.8337754193604L-280,6.859755221007625e-13L-265.3447680463479,-86.21574143061015L-224.9067244362352,-163.40430013730779L-162.8165148850152,-224.0977074418603L-85.28869044748615,-262.4915984974622L-2.0206672185931327e-13,-275L84.67065645873586,-260.589485464872L160.465373875845,-220.86163946436076L220.0526224699853,-159.87758862355324L257.73631591598655,-83.74360547561095L270,2.646908333877071e-13L255.8342028833964,83.12557148686065L216.81655449248635,157.52644761438225L156.9386623620905,216.00753749811082L82.19852050373576,252.98103333451093L2.27171981241834e-13,265L-81.58048651498547,251.07892030192076L-154.58752135292022,212.77146952061133L-211.96245252623638,153.99973610062776L-248.22575075303502,80.6534355318615L-260,7.00658904077799e-13L-246.32363772044485,-80.03540154311115L-208.7263845487363,-151.64859509145825L-151.06080983916578,-207.91736755436136L-79.10835055998722,-243.4704681715591L-2.4982794702606006e-13,-255L78.49031657123683,-241.56835513896894L148.70966882999548,-204.68129957686185L203.87228258248635,-148.12188357770378L238.71518559008345,-77.56326558811205L250,1.8385176503125005e-13L236.8130725574933,76.94523159936165L200.63621460498737,145.7707425685328L145.18295731624107,199.82719761061185L76.0181806162369,233.95990300860782L2.700346192119914e-13,245L-75.4001466274865,232.0577899760177L-142.83181630707077,196.5911296331124L-195.7821126387374,142.24403105477836L-229.2046204271319,74.47309564436259L-240,7.055451116616567e-13L-227.3025073945418,-73.85506165561216L-192.54604466123737,-139.89289004560874L-139.30510479331636,-191.7370276668624L-72.92801067248827,-224.44933784565603L-2.87791997799628e-13,-235L72.30997668373782,-222.5472248130659L136.95396378414534,-188.5009596893634L187.6919426949874,-136.36617853185433L219.69405526418038,-71.38292570061313L230,1.1280987106797182e-13L217.79194223159,70.76489171186346L184.45587471748843,134.0150375226833L133.42725227039162,183.6468577231129L69.83784072873803,214.93877268270475L1.1024606605190825e-12,225L-69.21980673998756,213.03665965011461L-131.07611126122126,180.41078974561344L-179.60177275123837,130.48832600892896L-210.1834901012291,68.29275575686292L-220,7.006341448523355e-13L-208.28137706863873,-67.6747217681132L-176.36570477373849,-128.1371849997592L-127.54939974746753,-175.55668777936296L-66.7476707849893,-205.42820751975296L-3.159588741800171e-13,-215L66.12963679623881,-203.52609448716282L125.19825873829713,-172.32061980186356L171.51160280748843,-124.61047348600486L200.6729249382773,-65.20258581311421L210,5.1565151497872386e-14L198.77081190568742,64.58455182436299L168.27553482998948,122.25933247683386L121.6715472245422,167.46651783561393L63.65750084123913,195.91764235680165L-4.0193793218133304e-13,205L-63.03946685248861,194.01552932421154L-119.32040621537178,164.23044985811453L-163.4214328637394,118.73262096307955L-191.16235977532554,62.11241586936543L-200,6.859260036498355e-13L-189.26024674273566,-61.49438188061422L-160.18536488623957,-116.3814799539097L-115.7936947016169,-159.37634789186487L-60.56733089749034,-186.4070771938499L-3.343285761672274e-13,-195L59.949296908739804,-184.50496416125978L113.4425536924465,-156.14027991436546L155.3312629199895,-112.8547684401554L181.65179461237423,-59.02224592561528L190,1.1760632095178797e-16L179.74968157978392,58.40421193686538L152.0951949424905,110.50362743098441L109.91584217869277,151.28617794811495L57.477160953740224,176.89651203089855L9.97091517341483e-13,185L-56.859126964989684,174.99439899830844L-107.5647011695223,148.05010997061558L-147.24109297624042,106.97691591723013L-172.1412294494229,55.9320759818652L-180,6.614206880541566e-13L-170.2391164168326,-55.31404199311527L-144.00502499874065,-104.6257749080602L-104.03798965576853,-143.1960080043651L-54.38699100999137,-167.3859468679468L-3.429011037612589e-13,-175L53.768957021240816,-165.48383383535673L101.68684864659807,-139.95994002686575L139.15092303249057,-101.0990633943059L162.63066428647116,-52.841906038116335L170,-4.153276446278999e-14L160.72855125388125,52.22387204936522L135.91485505499153,98.74792238513497L98.16013713284329,135.105838060616L51.29682106624132,157.87538170499548L-2.426843298412501e-13,165L-50.678787077490774,155.97326867240537L-95.80899612367283,131.86977008311663L-131.06075308874145,95.22121087138069L-153.12009912351945,49.75173609436741L-160,6.27118198065299e-13L-151.21798609092954,-49.13370210561631L-127.82468511124173,-92.8700698622107L-92.28228460991811,-127.01566811686688L-48.20665112249239,-148.36481654204377L-3.4167645696211157e-13,-155L47.58861713374184,-146.4627035094537L89.93114360074767,-123.77960013936747L122.97058314499166,-89.3433583484564L143.6095339605681,-46.66156615061738L150,-7.338596085335295e-14L141.70742092797784,46.04353216186735L119.73451516749257,86.99221733928555L86.40443208699382,118.92549817311708L45.116481178742404,138.8542513790924L8.525336765911684e-13,145L-44.498447189991865,136.9521383465023L-84.05329107782339,115.68943019561767L-114.88041320124248,83.46550582553127L-134.09896879761672,43.571396206867426L-140,5.830185336832625e-13L-132.19685576502644,-42.95336221811737L-111.6443452237428,-81.11436481636122L-80.52657956406948,-110.83532822936732L-42.0263112349934,-129.34368621614072L-3.3065463576978535e-13,-135L41.40827724624287,-127.4415731835506L78.17543855489905,-107.59926025186792L106.79024325749273,-77.58765330260691L124.58840363466473,-40.48122626311931L130,-1.0191475393388673e-12L122.68629060207505,39.86319227436748L103.5541752799936,75.2365122934361L74.64872704114434,102.74515828561813L38.93614129124347,119.83312105318932L-1.226194250738824e-13,125L-38.31810730249381,117.93100802059894L-72.29758603197465,99.5090903081182L-98.70007331374302,71.70980077968251L-115.07783847171335,37.39105631936935L-120,5.291216949080472e-13L-113.17572543912338,-36.77302233061845L-95.46400533624386,-69.35865977051174L-68.77087451821927,-94.65498834186891L-35.84597134749362,-110.32255589023791L-1.1269597863083956e-12,-115L35.22793735874313,-108.4204428576478L66.41973350904888,-91.41892036436947L90.60990336999382,-65.8319482567574L105.56727330876195,-34.300886375619456L110,-1.0770083045494236e-13L103.6651602761717,33.68285238686935L87.37383539249416,63.480807247587315L62.89302199529425,86.56481839811966L32.755801403745245,100.81199072728602L6.687871382681384e-13,105L-32.13776741499407,98.90987769469612L-60.541880986124504,83.32875042061976L-82.51973342624457,59.954095733832354L-96.05670814581053,31.210716431869624L-100,-2.4511505402044714e-13L-94.15459511322051,-30.592682443118854L-79.28366544874532,-57.602954724661714L-57.0151694723704,-78.47464845436954L-29.66563145999538,-91.30142556433461L-2.792194702055965e-13,-95L29.047597471244952,-89.39931253174447L54.664028463200054,-75.23858047687007L74.42956348249528,-54.07624321090736L86.5461429828591,-28.12054648811986L90,-7.496509658500591e-13L84.64402995026886,27.502512499369764L71.19349550499562,51.72510220173729L51.13731694944538,70.38447851062027L26.575461516245582,81.79086040138317L-4.174321787923003e-14,85L-25.957427527495764,79.88874736879283L-48.78617594027458,67.14841053312114L-66.33939353874528,48.198390687983355L-77.03557781990727,25.03037654437125L-80,3.9193649417808004e-13L-75.13346478731721,-24.41234255562061L-63.10332556124596,-45.847249678812815L-45.2594644265204,-62.294308566870974L-23.485291572495846,-72.28029523843173L2.9410092598634125e-13,-75L22.867257583745513,-70.37818220584155L42.90832341735013,-59.05824058937146L58.24922359499601,-42.32053816505835L67.52501265695582,-21.940206600621483L70,-1.0282700248381648e-13L65.62289962436559,21.322172611871395L55.013155617496345,39.96939715588829L39.381611903596266,54.20413862312106L20.395121628747074,62.769730075479956L4.4585190237239307e-13,65L-19.777087639996324,60.86761704288993L-37.03047089442564,50.968070645621815L-50.15905365124669,36.44268564213341L-58.01444749400437,18.85003665687178L-60,-1.176775092327318e-13L-56.112334461413994,-18.232002668122107L-46.92298567374725,-34.091544632963036L-33.50375938067129,-46.11396867937177L-17.304951684997334,-53.25916491252851L-1.8859560706869238e-13,-55L16.686917696247075,-51.35705187993832L31.15261837150108,-42.87790070187221L42.06888370749733,-30.564833119208522L48.503882331052665,-15.759866713122832L50,-4.409656947885354e-13L46.601769298462635,15.141832724372096L38.83281572999763,28.213692110038508L27.625906857746372,38.02379873562243L14.21478174124766,43.74859974957704L-5.570825729295219e-17,45L-13.59674775249776,41.84648671698673L-25.274765848576468,34.78773075812265L-33.97871376374757,24.686980596284176L-38.99331716810121,12.669696769373124L-40,2.155625958753977e-13L-37.09120413551103,-12.051662780622815L-30.742645786248044,-22.33583958711392L-21.74805433482151,-29.93362879187305L-11.12461179749805,-34.238034586625545L-3.772778714265071e-13,-35L10.50657780874792,-32.335921554035316L19.39691332565142,-26.697560814373404L25.888543819998212,-18.809128073359282L29.482752005149724,-9.57952682562348L30,-5.87644769399753e-14L27.580638972559456,8.96149283687347L22.652475842498504,16.457987064189282L15.870201811896703,21.843458848123635L8.034441853748858,24.72746942367392L1.837279689039324e-13,25L-7.416407864998611,22.825356391083726L-13.51906080272681,18.607390870623842L-17.798373876248817,12.931275550434446L-19.972186842198223,6.489356881873901L-20,-2.942866201773178e-14L-18.070073809607983,-5.8713228931238035L-14.56230589874915,-10.580134541264382L-9.992349288972145,-13.753288904374031L-4.944271909999245,-15.21690426072243L-5.878304635907296e-14,-15L4.326237921249235,-13.31479122813216L7.641208279802147,-10.51722092687432L9.708203932499378,-7.053423027509664L10.4616216792467,-3.399186938124389L10,-9.309172615429649e-14L8.559508646656402,2.7811529493744622L6.472135954999606,4.702282018339748L4.114496766047335,5.663118960624616L1.8541019662496974,5.706339097770917L2.443103791928823e-15,5L-1.2360679774997945,3.804226065180613L-1.7633557568773925,2.427050983124862L-1.6180339887498838,1.1755705045849614L-0.9510565162951512,0.3090169943749547" transform="rotate(270)"/>
  </g></svg>