<svg width="1000" height="1000" xmlns="http://www.w3.org/2000/svg" xmlns:xlink="http://www.w3.org/1999/xlink"><g transform="translate(500,500)">
    <path stroke="green" stroke-width="5" fill="none" d="M0,-71L21.631189606246316,-66.57395614066074L40.557182408180644,-55.82217261187137L55.013155617496416,-39.96939715588818L63.72078659177529,-20.70413862312148L66,-4.0413344371862654e-15L61.81867355918499,20.086104634371576L51.77708763999664,37.618256146718274L37.03047089442582,50.96807064562168L19.159053651246744,58.96550401029952L7.470345474798855e-15,61L-18.541019662496836,57.06339097770922L-34.67932988525591,47.7320026681219L-46.92298567374694,34.09154463296345L-54.21022142882375,17.61396867937201L-56,1.0287033112837767e-14L-52.30810839623345,-16.995934690622096L-43.68691769624717,-31.740403623793537L-31.15261837150108,-42.87790070187221L-16.068883707497275,-49.45493884734798L-1.2491397351303002e-14,-51L15.450849718747358,-47.55282581475768L28.801477362331173,-39.64183272437243L38.83281572999746,-28.21369211003872L44.699656265872214,-14.523798735622544L46,-1.4083438190194563e-14L42.797543233281914,13.90576474687262L35.5967477524977,25.862551100868803L25.274765848576354,34.787730758122734L12.978713763747807,39.944373684396446L1.5063155629512442e-14,41L-12.360679774997882,38.042260651806146L-22.92362483940644,31.55166278062296L-30.742645786247994,22.33583958711399L-35.18909110292068,11.43362879187307L-36,1.543054966925665e-14L-33.286978070330385,-10.815594803123146L-27.506577808748222,-19.984698577944076L-19.396913325651624,-26.697560814373258L-9.888543819998333,-30.43380852144491L-1.518562030942718e-14,-31L9.27050983124841,-28.531695488854613L17.04577231648171,-23.461492836873482L22.652475842498518,-16.45798706418926L25.67852593996914,-8.343458848123595L26,-1.432836755002403e-14L23.776412907378845,7.725424859373672L19.416407864998746,14.106846055019345L13.519060802726894,18.60739087062378L6.798373876248856,20.923243358493377L1.285879139104721e-14,21L-6.180339887498903,19.021130325903087L-11.16791979355698,15.37132289312401L-14.562305898749067,10.580134541264501L-16.16796077701761,5.253288904374117L-16,3.919860126290071e-14L-14.265847744427306,-4.635254915624202L-11.326237921249255,-8.228993532094636L-7.641208279802158,-10.51722092687431L-3.7082039324993974,-11.412678195541833L-8.082668874372531e-15,-11L3.090169943749484,-9.510565162951533L5.290067270632252,-7.2811529493745315L6.472135954999567,-4.702282018339801L6.657395614066073,-2.163118960624637L6,5.882018519726825e-15L4.755282581475769,1.5450849718747333L3.236067977499796,2.351141009169884L1.7633557568774214,2.4270509831248406L0.618033988749893,1.9021130325903077L8.572527594031472e-16,1" transform="rotate(270)"/>
  </g></svg>