<svg width="1000" height="1000" xmlns="http://www.w3.org/2000/svg" xmlns:xlink="http://www.w3.org/1999/xlink"><g transform="translate(500,500)">
    <path stroke="blue" stroke-width="5" fill="none" d="M0,-426.75L131.6412396037276,-405.1500759417354L249.9556785373742,-344.0344768579464L343.4277141121651,-249.5148395981549L403.01019878007133,-130.94595136638398L423,-2.5901279801966522e-14L401.58361400562865,130.4824258748215L341.00066312904033,247.75148384127738L247.31064490205813,340.3939003832591L129.78713763747794,399.4437368439645L5.134331705425278e-14,419.25L-129.32361214591543,398.0171520695218L-245.5472891451806,337.9668494001343L-337.36008665435304,245.10645020596135L-395.87727490785767,128.62832390857193L-415.5,7.632611175685879e-14L-394.450690133415,-128.16479841700937L-334.9330356712283,-243.3430944490838L-242.90225550986457,-334.326272925447L-127.46951017966589,-392.3108129717508L-1.0084966390978453e-13,-411.75L127.00598468810328,-390.8842281973082L241.13889975298702,-331.89922194232224L331.2924591965409,-240.69806081376785L388.74435103564394,-126.31069645075988L408,-1.2491397351303003e-13L387.3177662612013,125.84717095919721L328.86540821341623,238.93470505689018L238.49386611767108,328.25864546763484L125.15188272185385,385.17788909953714L1.4851904056659525e-13,404.25L-124.68835723029115,383.7513043250945L-236.73051036079343,325.83159448451016L-325.22483173872877,236.28967142157433L-381.61142716343033,123.99306899294783L-400.5,1.7166486507048024e-13L-380.1848423889877,-123.52954350138506L-322.7977807556041,-234.52631566469665L-234.08547672547755,-322.19101800982276L-122.83425526404179,-378.0449652273235L-1.9435144702468496e-13,-396.75L122.370729772479,-376.6183804528809L232.32212096859988,-319.7639670266981L319.15720428091663,-231.88128202938083L374.47850329121667,-121.67544153513576L393,-2.1657878642920943e-13L373.05191851677404,121.21191604357293L316.73015329779207,230.11792627250307L229.6770873332841,316.12339055201056L120.51662780622972,370.9120413551098L2.3834688328405364e-13,389.25L-120.05310231466618,369.48545658066746L-227.91373157640624,313.69633956888606L-313.08957682310495,227.47289263718676L-367.345579419003,119.3578140773237L-385.5,9.44441299178014e-13L-365.9189946445604,-118.89428858576078L-310.6625258399796,-225.70953688031003L-225.26869794109055,-310.0557630941984L-118.1990003484183,-363.7791174828959L-2.805053493447012e-13,-381.75L117.73547485685533,-362.3525327084534L223.50534218421265,-307.6287121110739L307.02194936529196,-223.0645032449943L360.21265554678934,-117.04018661951162L378,3.7056716674279e-13L358.7860707723468,116.57666112794864L304.5948983821683,221.30114748811533L220.86030854889702,303.9881356363863L115.88137289060494,356.6461936106827L3.2082684520662785e-13,374.25L-115.41784739904195,355.2196088362402L-219.09695279201907,301.56108465326184L-300.9543219074807,218.6561138527997L-353.07973167457567,114.72255916169955L-370.5,9.984389383108635e-13L-351.65314690013315,-114.25903367013647L-298.5272709243554,-216.89275809592283L-216.45191915670353,-297.9205081785742L-113.56374543279415,-349.51326973846864L-3.5931137086983343e-13,-366.75L113.10021994123103,-348.0866849640261L214.68856339982548,-295.49345719544976L294.88669444966774,-214.24772446060726L345.946807802362,-112.40493170388748L363,2.669527628253751e-13L344.5202230279195,111.94140621232434L292.4596434665441,212.48436870372822L212.04352976451,291.8528807207621L111.24611797498085,342.38034586625537L3.95958926334318e-13,359.25L-110.78259248341767,340.95376109181285L-210.28017400763196,289.4258297376377L-288.8190669918564,209.8393350684127L-338.81388393014834,110.0873042460754L-355.5,1.0450886966488288e-12L-337.3872991557059,-109.6237787545122L-286.3920160087312,-208.0759793115357L-207.6351403723165,-285.78525326294994L-108.92849051716998,-335.2474219940413L-4.3076951160008153e-13,-351.75L108.46496502560673,-333.82083721959884L205.87178461543735,-283.35820227982634L282.7514395340435,-205.4309456762202L331.68096005793467,-107.76967678826333L348,1.7068623970284432e-13L330.2543752834918,107.30615129670123L280.32438855091993,203.66758991934105L203.22675098012294,279.7176258051378L106.61086305935672,328.11449812182803L1.6867648105941964e-12,344.25L-106.14733756779341,326.6879133473856L-201.4633952232448,277.2905748220135L-276.68381207623213,201.0225562840257L-324.5480361857214,105.4520493304501L-340.5,1.08439057419191e-12L-323.12145141127854,-104.98852383888794L-274.2567610931071,-199.25920052714847L-198.81836158793038,-273.649998347325L-104.29323560154577,-320.98157424961397L-4.948797715354454e-13,-336.75L103.82971010998244,-319.55498947517157L197.05500583105217,-271.2229473642007L270.61618461841925,-196.61416689183315L317.41511231350734,-103.1344218726392L333,8.176759737519764e-14L315.98852753906533,102.67089638107467L268.1891336352957,194.85081113495397L194.4099721957359,267.5823708895136L101.97560814373259,313.8486503774007L-6.45551532540019e-13,329.25L-101.51208265216916,312.4220656029583L-192.64661643885762,265.1553199063893L-264.5485571606078,192.20577749963869L-310.28218844129333,100.81679441482822L-325.5,1.1163445709401072e-12L-308.85560366685127,-100.35326892326366L-262.12150617748296,-190.44242174276133L-190.00158280354145,-261.51474343170213L-99.65798068592161,-306.7157265051867L-5.516421506759252e-13,-321.75L99.19445519435813,-305.2891417307443L188.23822704666318,-259.0876924485779L258.48092970279504,-187.7973881074461L303.14926456908,-98.49916695701503L318,1.9683584243509774e-16L301.72267979463726,98.03564146545261L256.05387871967156,186.03403235056683L185.5931934113489,255.4471159738893L97.34035322810844,299.58280263297337L1.693708158511141e-12,314.25L-96.87682773654493,298.15621785853097L-183.82983765447048,253.02006499076515L-252.41330224498358,183.38899871525166L-296.01634069686673,96.18153949920189L-310.5,1.14095068689342e-12L-294.589755922424,-95.71801400763941L-249.98625126185877,-181.62564295837416L-181.18480401915622,-249.37948851607652L-95.02272577029741,-292.44987876075936L-6.010566490215209e-13,-306.75L94.55920027873385,-291.023293986317L179.4214482622778,-246.95243753295244L246.34567478717082,-178.98060932305899L288.8834168246527,-93.86391204139086L303,-7.402604489544333e-14L287.45683205021066,93.40038654982625L243.91862380404731,177.21725356617972L176.7764146269618,243.31186105826507L92.70509831248432,285.31695488854604L-4.4014112548481263e-13,299.25L-92.24157282092071,283.8903701141037L-175.01305887008334,240.88481007514096L-240.27804732935934,174.57221993086458L-281.7504929524387,91.54628458357978L-295.5,1.158208922051849e-12L-280.3239081779967,-91.08275909201514L-237.8509963462346,-172.80886417398702L-172.36802523476743,-237.24423360045355L-90.38747085467324,-278.184031016332L-6.431232665722325e-13,-291.75L89.92394536310958,-276.75744624188974L170.60466947788896,-234.81718261732945L234.2104198715466,-170.1638305386719L274.6175690802254,-89.22865712576669L288,-1.4090104483843764e-13L273.19098430578276,88.765131634204L231.78336888842313,168.40047478179264L167.95963584257473,231.17660614264085L88.06984339686016,271.0511071441187L1.6712599832485492e-12,284.25L-87.60631790529648,269.6245223696764L-166.19628008569626,228.74955515951677L-228.14279241373507,165.75544114647758L-267.48464520801207,86.91102966795364L-280.5,1.1681192764153937e-12L-266.05806043356944,-86.4475041763909L-225.71574143061045,-163.99208538959985L-163.55124645038197,-225.10897868482814L-85.75221593904902,-263.91818327190475L-6.7784200332806e-13,-276.75L85.28869044748531,-262.49159849746246L161.78789069350347,-222.6819277017041L222.07516495592236,-161.34705175428482L260.3517213357975,-84.59340221014436L273,-2.1402098326116212e-12L258.92513656135606,84.12987671857788L219.64811397279894,159.5836959974055L159.14285705818764,219.0413512270166L83.434588481236,256.78525939969137L-2.641222416091427e-13,269.25L-82.9710629896741,255.3586746252485L-157.37950130131065,216.61430024389148L-216.0075374981097,156.93866236209206L-253.21879746358414,82.27577475233132L-265.5,1.1706817499840544e-12L-251.79221268914213,-81.81224926076668L-213.58048651498626,-155.1753066052127L-154.73446766599335,-212.97372376920507L-81.11696102342304,-249.65233552747804L-2.5650584701410655e-12,-261.75L80.65343553185927,-248.22575075303573L152.9711119091148,-210.54667278608102L209.93991004029817,-152.53027296989774L246.08587359137078,-79.95814729451833L258,-2.526074023397739e-13L244.65928881692818,79.49462180295542L207.5128590571736,150.76691721301987L150.32607827379908,206.90609631139347L78.79933356561357,242.51941165526353L1.6194202848064208e-12,254.25L-78.33580807404806,241.09282688082178L-148.56272251692204,204.4790453282684L-203.87228258248658,148.12188357770344L-238.95294971915737,77.64051983670538L-250.5,-6.140132103212201e-13L-237.52636494471537,-77.17699434514074L-201.44523159936313,-146.35852782082415L-145.91768888160775,-200.83846885357977L-76.48170610780059,-235.38648778305014L-7.252358344550625e-13,-246.75L76.01818061623679,-233.95990300860788L144.15433312472916,-198.41141787045575L197.80465512467498,-143.71349418550923L231.820025846944,-75.32289237889248L243,-2.0240576077951594e-12L230.39344107250145,74.8593668873295L195.37760414155048,141.95013842863133L141.5092994894135,194.77084139576817L74.16407864998767,228.25356391083676L-1.1749488091300923e-13,239.25L-73.70055315842546,226.82697913639396L-139.7459437325335,192.34379041264518L-191.7370276668614,139.30510479331772L-224.68710197472956,73.00526492108281L-235.5,1.1537630547367232e-12L-223.26051720028752,-72.54173942951822L-189.3099766837379,-137.54174903643846L-137.10091009721927,-188.70321393795655L-71.8464511921748,-221.12064003862338L9.087718612977945e-13,-231.75L71.38292570061098,-219.6940552641811L135.33755434034066,-186.27616295483256L185.66940020904977,-134.89671540112352L217.55417810251615,-70.68763746326991L228,-3.3492223666157367e-13L216.1275933280736,70.22411197170688L183.24234922592532,133.13335964424553L132.6925207050277,182.635586480143L69.52882373436502,213.98771616640894L1.5381890631847561e-12,224.25L-69.06529824279967,212.5611313919672L-130.9291649481478,180.20853549702L-179.60177275123814,130.4883260089293L-210.42125423030274,68.37001000545708L-220.5,-4.3246484643028937e-13L-208.99466945585974,-67.90648451389548L-177.1747217681146,-128.7249702520501L-128.2841313128335,-176.5679590223314L-67.21119627655214,-206.85479229419556L-7.432381424025286e-13,-216.75L66.7476707849883,-205.42820751975327L126.52077555595487,-174.1409080392074L173.53414529342646,-126.07993661673515L203.2883303580884,-66.05238254764717L213,-1.878513859799161e-12L201.8617455836468,65.58885705608117L171.10709431030205,124.31658085985718L123.87574192063933,170.50033156451974L64.89356881873931,199.72186842198212L-2.590433964122277e-16,209.25L-64.43004332717689,198.2952836475394L-122.1123861637619,168.0732805813949L-167.46651783561302,121.67154722454343L-196.15540648587495,63.73475508983431L-205.5,1.1074528363098556e-12L-194.72882171143291,-63.27122959826978L-165.0394668524895,-119.90819146766421L-119.46735252844519,-164.43270410670806L-62.575941360926535,-192.5889445497687L-2.1747374445799376e-12,-201.75L62.11241586936271,-191.16235977532642L117.70399677156657,-162.00565312358407L161.39889037780137,-117.26315783234928L189.02248261366154,-61.417127632021504L198,-3.87845547803837e-13L187.59589783921905,60.953602140458344L158.971839394677,115.49980207547121L115.0589631362511,158.36507664889635L60.25831390311643,185.4560206775544L1.4275663183835546e-12,194.25L-59.7947884115513,184.02943590311256L-113.29560737937359,155.93802566577156L-155.33126291998968,112.85476844015517L-181.88955874144813,59.09950017420874L-190.5,-2.8030800571889517e-13L-180.46297396700604,-58.635974682644296L-152.90421193686606,-111.09141268327602L-110.6505737440592,-152.29744919108302L-57.940686445303655,-178.32309680534098L-7.318489271704583e-13,-186.75L57.47716095373983,-176.8965120308987L108.88721798718059,-149.87039820795906L149.26363546217794,-108.44637904796109L174.75663486923463,-56.781872716396045L183,-1.7035785886236256e-12L173.33005009479214,56.318347224832856L146.83658447905356,106.68302329108303L106.2421843518651,146.22982173327134L55.62305898749092,171.1901729331275L8.75852709406483e-14,179.25L-55.15953349592833,169.76358815868485L-104.4788285949855,143.80277075014808L-143.19600800436473,104.03798965576908L-167.6237109970204,54.46424525858577L-175.5,1.0317510947034516e-12L-166.1971262225783,-54.00071976702138L-140.76895702124108,-102.27463389889L-101.83379495967107,-140.16219427545957L-53.30543152967824,-164.05724906091407L5.052246503058752e-13,-171.75L52.841906038114466,-162.63066428647176L100.07043920279247,-137.73514329233558L137.128380546553,-99.629600263575L160.49078712480696,-52.14661780077306L168,-4.1137733576656385e-13L159.06420235036447,51.68309230920985L134.70132956342863,97.86624450669693L97.42540556747895,134.0945668176464L50.987804071867835,156.92432518869987L1.287552050402817e-12,164.25L-50.52427858030296,155.49774041425792L-95.66204981059943,131.6675158345231L-131.06075308874122,95.22121087138098L-153.35786325259346,49.828990342960395L-160.5,-1.5754268818703743e-13L-151.93127847815066,-49.36546485139827L-128.63370210561754,-93.45785511450198L-93.0170161752849,-128.0269393598347L-48.670176614055144,-149.79140131648637L-6.910681887588514e-13,-156.75L48.206651122491415,-148.36481654204408L91.25366041840634,-125.59988837671068L124.99312563092947,-90.81282147918698L146.2249393803793,-47.51136288514986L153,-1.4992517942685543e-12L144.7983546059375,47.04783739358457L122.5660746478051,89.04946572230891L88.60862678309088,121.95931190202293L46.35254915624251,142.6584774442729L1.4603806209817235e-13,149.25L-45.889023664679804,141.23189266983027L-86.8452710262132,119.53226091889826L-118.92549817311642,86.40443208699473L-139.09201550816584,45.193735427337195L-145.5,9.26657829917511e-13L-137.6654307337237,-44.730209935773004L-116.49844718999267,-84.64107633011581L-84.2002373908969,-115.89168444421112L-44.03492169842992,-135.5255535720594L-1.6668503263006639e-12,-141.75L43.57139620686625,-134.0989687976171L82.43688163401842,-113.46463346108706L112.85787071530464,-81.99604269480074L131.95909163595235,-42.876107969524575L138,-4.055176005497542e-13L130.5325068615099,42.41258247796138L110.43081973218027,80.23268693792267L79.79184799870298,109.8240569863993L41.717294240619196,128.39262969984532L1.1181462592425427e-12,134.25L-41.25376874905465,126.96604492540328L-78.02849224182529,107.39700600327464L-106.79024325749283,77.58765330260678L-124.82616776373885,40.558480511712006L-130.5,-6.416889383471617e-14L-123.39958298929666,-40.09495502014796L-104.363192274369,-75.82429754572796L-75.38345860651054,-103.75642952858638L-39.3996667828066,-121.25970582763182L-6.208959271677081e-13,-126.75L38.936141291243004,-119.83312105318947L73.62010284963212,-101.32937854546226L100.72261579968098,-73.17926391041287L117.69324389152534,-38.240853053899485L123,-1.2655334767339464e-12L116.26665911708284,37.77732756233633L98.2955648165566,71.41590815353482L70.97506921431801,97.68880207077353L37.08203932499406,114.12678195541831L1.8697437548639987e-12,119.25L-36.61851383343131,112.70019718097568L-69.21171345743757,95.2617510876509L-94.65498834186911,68.77087451821899L-110.56032001931129,35.9232255960886L-115.5,-8.491806776537976e-13L-109.13373524486906,-35.45970010452466L-92.22793735874518,-67.00751876134032L-66.56667982212272,-91.6211746129627L-34.764411867183085,-106.99385808320429L2.1924353203210174e-13,-111.75L34.300886375618056,-105.56727330876241L64.80332406524565,-89.19412362983759L88.5873608840563,-64.36248512602643L103.42739614709825,-33.6055981382746L108,-3.7026634215340804e-13L102.00081137265575,33.14207264671149L86.16030990093189,62.5991293691484L62.15829042993009,85.55354715514993L32.446784409369116,99.86093421099123L9.19348944902732e-13,104.25L-31.983258917807763,98.43434943654816L-60.39493467305118,83.12649617202617L-82.51973342624358,59.95409573383372L-96.29447227488424,31.287970680463598L-100.5,1.42800427621587e-12L-94.86788750044151,-30.824445188901173L-80.09268244312041,-58.190739976953985L-57.74990103773507,-79.48591969733889L-30.129156951558038,-92.72801033877725L-1.896232336092822e-12,-96.75L29.66563145999462,-91.30142556433485L55.98654528085682,-77.05886871421464L76.45210596843252,-55.54570634163872L89.16154840267028,-28.97034322265244L93,3.1918585249398434e-13L87.73496362822817,28.50681773108811L74.02505498530732,53.78235058476181L53.34151164554234,73.41829223952618L27.8115294937468,85.59508646656333L1.74769074874611e-13,89.25L-27.348004002181636,84.16850169212148L-51.578155888664625,70.99124125640157L-70.38447851061987,51.137316949445925L-82.02862453045714,26.652715764838796L-85.5,6.282967308070205e-13L-80.60203975601404,-26.189190273277493L-67.95742752749577,-49.373961192567485L-48.93312225334949,-67.35066478171358L-25.493902035933182,-78.46216259435016L-1.0413971153032441e-12,-81.75L25.03037654437099,-77.03557781990736L47.16976649647037,-64.92361379858995L64.31685105280864,-46.728927557251176L74.89570065824321,-24.335088307027537L78,-1.4140702283632816e-12L73.46911588380067,23.87156281546453L61.889800069684135,44.9655718003733L44.52473286115475,61.28303732390233L23.17627457812185,71.32923872213625L-3.63995855220364e-13,74.25L-22.71274908655811,69.90265394769395L-42.76137710427624,58.85598634077828L-58.249223594996046,42.320538165058295L-67.76277678602933,22.01746084921612L-70.5,3.440412533131692e-14L-66.33619201158724,-21.553935357651724L-55.82217261187125,-40.557182408180815L-40.11634346896181,-55.215409866089786L-20.85864712030853,-64.196314849923L-3.923768344468119e-13,-66.75L20.39512162874538,-62.76973007548051L38.35298771208375,-52.78835888296541L52.181596137183554,-37.91214877286529L60.629852913816066,-19.699833391402827L63,-7.099222721261211e-13L59.203268139373215,19.236307899840757L49.75454515405954,36.14879301598672L35.70795407676734,49.14778240827835L18.541019662497085,57.06339097770914L9.870404383692445e-13,59.25L-18.077494170934386,55.636806203266495L-33.94459831988971,46.72073142515366L-46.1139686793721,33.50375938067084L-53.49692904160222,17.382205933591305L-55.5,-3.536735402112407e-13L-52.07034426715976,-16.918680442028055L-43.68691769624775,-31.74040362379274L-31.2995646845743,-43.08015495046587L-16.22339220468549,-49.930467105495325L5.082850647647421e-14,-51.75L15.759866713121763,-48.50388233105301L29.536208927696958,-40.653103967340975L40.046341221559665,-29.09536998847774L46.364005169388435,-15.06457847577963L48,-2.1158925582210638e-13L44.93742039494625,14.601052984215508L37.619290238435084,27.332014231599963L26.89117529238114,37.01252749265348L13.905764746872523,42.79754323328195L4.335797466845011e-13,44.25L-13.442239255310467,41.3709584588391L-25.127819535503008,34.58547650952916L-33.97871376374733,24.686980596284506L-39.23108129717505,12.74695101796669L-40.5,6.1514296611071e-13L-37.80449652273234,-12.28342552640419L-31.551662780623218,-22.923624839406084L-22.48278590018696,-30.944900034841837L-11.58813728906082,-35.66461936106817L2.8821890746661444e-13,-36.75L11.124611797497948,-34.23803458662558L20.719430143309193,-28.51784905171725L27.911086305935665,-20.278591204090354L32.09815742496129,-10.42932356015491L33,8.092882054876238e-14L30.6715726505188,9.965798068591747L25.484035322810733,18.515235447213055L18.074396507993708,24.87727257702952L9.270509831248964,28.53169548885443L8.593399493290378e-14,29.25L-8.806984339685584,27.10511071441201L-16.311040751116145,22.45022159390478L-21.843458848123394,15.870201811897033L-24.965233552747815,8.111696102342266L-25.5,2.1236953897838405e-13L-23.53864877830521,-7.64817061077946L-19.416407864998806,-14.106846055019261L-13.666007115800326,-18.80964511921729L-6.952882373436344,-21.398771616640946L-2.9837781158767844e-13,-21.75L6.489356881873941,-19.97218684219821L11.902651358922412,-16.382594136092806L15.77583139031154,-11.461812419703135L17.83230968053409,-5.794068644530382L18,-3.439588127607869e-13L16.405724906091415,5.330543152967792L13.348780407186783,9.698456662825597L9.257617723606447,12.742017661405425L4.635254915624383,14.265847744427248L-5.589681688554761e-14,14.25L-4.171729424061681,12.839262969984608L-7.494261966729109,10.314966678280523L-9.708203932499334,7.053423027509726L-10.699385808320418,3.476441186718345L-10.5,1.541105177920412e-14L-9.272801033877789,-3.0129156951556086L-7.281152949374516,-5.2900672706322736L-4.849228331412973,-6.674390203593266L-2.317627457812066,-7.132923872213665L-4.629164900776995e-14,-6.75L1.8541019662495741,-5.706339097770957L3.08587257453547,-4.2473392204684846L3.6405764746872213,-2.6450336353161865L3.566461936106826,-1.158813728906052L3,-3.674497480014989e-14L2.139877161664093,0.6952882373436396L1.2135254915624287,0.8816778784386992L0.4408389392193677,0.6067627457812013" transform="rotate(270)"/>
  </g></svg>