<svg width="1000" height="1000" xmlns="http://www.w3.org/2000/svg" xmlns:xlink="http://www.w3.org/1999/xlink"><g transform="translate(500,500)">
    <path stroke="red" stroke-width="5" fill="none" d="M0,-150L46.04353216186716,-141.70742092797786L86.99221733928603,-119.73451516749222L118.92549817311726,-86.40443208699357L138.8542513790924,-45.116481178742326L145,-8.878689293818311e-15L136.95213834650212,44.49844718999242L115.68943019561749,84.05329107782364L83.4655058255312,114.88041320124252L43.5713962068676,134.09896879761664L1.7145055188062946e-14,140L-42.953362218117675,132.19685576502636L-81.11436481636127,111.64434522374275L-110.83532822936779,80.52657956406884L-129.34368621614087,42.02631123499287L-135,2.4799097682733902e-14L-127.44157318355059,-41.40827724624293L-107.59926025186803,-78.1754385548989L-77.58765330260647,-106.79024325749305L-40.48122626311814,-124.58840363466511L-3.184081677783118e-14,-130L39.86319227436819,-122.68629060207482L75.23651229343653,-103.55417527999329L102.7451582856183,-74.64872704114411L119.83312105318933,-38.936141291243416L125,-3.827021247335479e-14L117.93100802059905,38.318107302493445L99.50909030811856,72.29758603197415L71.70980077968176,98.70007331374356L37.39105631936868,115.07783847171356L4.408728476930471e-14,120L-36.7730223306187,113.17572543912328L-69.35865977051179,95.46400533624383L-94.65498834186883,68.7708745182194L-110.3225558902378,35.84597134749395L-115,4.9292033665680967e-14L-108.42044285764753,-35.22793735874396L-91.41892036436909,-66.41973350904942L-65.83194825675703,-90.60990336999409L-34.300886375619214,-105.56727330876203L-5.388445916248354e-14,-110L33.682852386869214,-103.66516027617176L63.480807247587066,-87.37383539249434L86.56481839811934,-62.893021995294674L100.81199072728626,-32.755801403744485L105,-5.786456125971245e-14L98.909877694696,32.13776741499448L83.32875042061963,60.54188098612469L59.95409573383232,82.5197334262446L31.21071643186975,96.05670814581049L6.123233995736766e-14,100L-30.592682443119568,94.15459511322028L-57.60295472466231,79.2836654487449L-78.47464845436997,57.015169472369806L-91.30142556433472,29.665631459995012L-95,2.3274169499847297e-13L-89.39931253174446,-29.047597471245L-75.23858047687006,-54.66402846320008L-54.07624321090758,-74.42956348249513L-28.12054648812043,-86.5461429828589L-6.613092715395707e-14,-90L27.502512499370408,-84.64402995026863L51.72510220173758,-71.19349550499541L70.3844785106203,-51.137316949445335L81.79086040138318,-26.575461516245543L85,8.332859569613002e-14L79.88874736879292,25.957427527495522L67.14841053312077,48.78617594027509L48.19839068798285,66.33939353874564L25.030376544370668,77.03557781990746L6.858022075225178e-14,80L-24.41234255562065,75.1334647873172L-45.847249678812844,63.103325561245946L-62.294308566870995,45.259464426520374L-72.28029523843165,23.48529157249607L-75,2.021131454070574e-13L-70.37818220584138,-22.867257583746042L-59.058240589371124,-42.90832341735059L-42.320538165058124,-58.249223594996174L-21.940206600621455,-67.52501265695585L-6.858022075225178e-14,-70L21.322172611871423,-65.62289962436557L39.96939715588811,-55.013155617496466L54.204138623121366,-39.38161190359585L62.76973007548011,-20.395121628746594L65,4.7801458908125016e-14L60.86761704288985,19.77708763999657L50.96807064562179,37.03047089442567L36.44268564213339,50.1590536512467L18.850036656871755,58.01444749400438L6.613092715395708e-14,60L-18.232002668121737,56.11233446141411L-34.09154463296339,46.92298567374699L-46.11396867937203,33.503759380670935L-53.259164912528576,17.304951684997118L-55,1.6168742142246298e-13L-51.35705187993832,-16.6869176962471L-42.87790070187219,-31.152618371501106L-30.564833119208654,-42.068883707497235L-15.759866713122465,-48.503882331052786L-6.123233995736766e-14,-50L15.141832724372449,-46.601769298462514L28.213692110038522,-38.83281572999761L38.02379873562245,-27.62590685774635L43.748599749577046,-14.214781741247636L45,2.2071496513298835e-14L41.846486716986725,13.59674775249778L34.78773075812282,25.274765848576234L24.686980596283913,33.97871376374776L12.669696769372827,38.993317168101306L1.9599300631450355e-13,40L-12.051662780622834,37.09120413551103L-22.335839587113938,30.742645786248033L-29.933628791873065,21.748054334821493L-34.23803458662555,11.124611797498032L-35,1.1146452304468973e-13L-32.33592155403524,-10.506577808748169L-26.697560814373258,-19.39691332565162L-18.80912807335927,-25.888543819998226L-9.579526825623464,-29.482752005149727L-4.408728476930471e-14,-30L8.961492836873484,-27.58063897255945L16.457987064189293,-22.652475842498493L21.84345884812353,-15.870201811896846L24.72746942367398,-8.034441853748671L25,6.138708511651475e-15L22.825356391083723,7.416407864998622L18.60739087062384,13.519060802726822L12.931275550434435,17.798373876248824L6.489356881873892,19.972186842198226L-3.921345679817883e-14,20L-5.871322893123939,18.070073809607937L-10.580134541264492,14.56230589874907L-13.753288904374106,9.992349288972042L-15.216904260722432,4.944271909999238L-15,5.144445027373766e-14L-13.314791228132158,-4.326237921249242L-10.517220926874316,-7.641208279802152L-7.053423027509659,-9.708203932499384L-3.399186938124458,-10.461621679246678L-1.7145055188062946e-14,-10L2.781152949374527,-8.559508646656381L4.702282018339751,-6.4721359549996045L5.663118960624617,-4.114496766047332L5.706339097770918,-1.8541019662496947L5,3.0949031829417886e-18L3.804226065180612,1.2360679774997965L2.4270509831248486,1.7633557568774108L1.1755705045849494,1.6180339887498927L0.30901699437494745,0.9510565162951535" transform="rotate(270)"/>
  </g></svg>