<?xml version="1.0" encoding="utf-8"?>
<!-- Generator: Adobe Illustrator 25.2.2, SVG Export Plug-In . SVG Version: 6.00 Build 0)  -->
<svg version="1.1" id="Ebene_1" xmlns="http://www.w3.org/2000/svg" xmlns:xlink="http://www.w3.org/1999/xlink" x="0px" y="0px"
	 viewBox="0 0 50 50" style="enable-background:new 0 0 50 50;" xml:space="preserve">
<style type="text/css">
	.st0{fill:#1D1D1B;}
	.st1{fill:#FDF5E6;}
</style>
<g>
	<polygon class="st0" points="17.6,49.9 17.6,32.4 0.1,32.4 0.1,17.6 17.6,17.6 17.6,0.1 32.4,0.1 32.4,17.6 49.9,17.6 49.9,32.4 
		32.4,32.4 32.4,49.9 	"/>
	<path class="st1" d="M32.2,0.2v17.2v0.2h0.2h17.2v14.5H32.5h-0.2v0.2v17.2H17.8V32.5v-0.2h-0.2H0.2V17.8h17.2h0.2v-0.2V0.2H32.2
		 M32.5,0h-15v17.5H0v15h17.5V50h15V32.5H50v-15H32.5V0L32.5,0z"/>
</g>
</svg>
