<svg viewBox="0 0 396.85 396.85" xmlns="http://www.w3.org/2000/svg"><path d="m0 221.1h396.85v175.75h-396.85z" fill="#282828"/><path d="m195.08 221.1-97.54-162.62-97.54 162.62z" fill="#f16834"/><path d="m195.08 0a110.53 110.53 0 0 0 -97.54 58.48l97.54 162.62a110.55 110.55 0 0 0 0-221.1z" fill="#ecce86"/><path d="m195.08 0a110.55 110.55 0 0 1 0 221.1h201.77v-221.1z" fill="#20638d"/><g fill="#fff"><path d="m20.18 268.42v-12h18.64v-4.52h-18.64v-11.41h20.93v-4.62h-26.24v37.17h26.98v-4.62z"/><path d="m53 273v-37.13h5.31v37.13z"/><path d="m81.18 273.46a25.31 25.31 0 0 1 -8.13-1.3 16.62 16.62 0 0 1 -6.11-3.37l2-4.14a17 17 0 0 0 5.42 3.08 19.58 19.58 0 0 0 6.82 1.27 15.57 15.57 0 0 0 5.25-.74 6.26 6.26 0 0 0 3-2 4.81 4.81 0 0 0 1-2.94 4 4 0 0 0 -1.24-3.09 9.58 9.58 0 0 0 -3.24-1.88 37 37 0 0 0 -4.45-1.35q-2.4-.53-4.81-1.25a20.82 20.82 0 0 1 -4.41-1.83 8.89 8.89 0 0 1 -3.21-3 8.76 8.76 0 0 1 -1.22-4.86 9.74 9.74 0 0 1 1.51-5.28 10.53 10.53 0 0 1 4.64-3.88 19.31 19.31 0 0 1 8-1.46 24.75 24.75 0 0 1 6.43.85 18.1 18.1 0 0 1 5.57 2.44l-1.72 4.27a17.3 17.3 0 0 0 -5-2.31 19.66 19.66 0 0 0 -5.15-.72 14.17 14.17 0 0 0 -5.15.8 6.23 6.23 0 0 0 -3 2.13 5 5 0 0 0 -.93 3 4.09 4.09 0 0 0 1.25 3.1 8.91 8.91 0 0 0 3.24 1.86 43.77 43.77 0 0 0 4.38 1.25q2.39.56 4.81 1.25a20.47 20.47 0 0 1 4.4 1.8 9.22 9.22 0 0 1 3.22 3 8.58 8.58 0 0 1 1.22 4.78 9.53 9.53 0 0 1 -1.57 5.19 10.64 10.64 0 0 1 -4.72 3.87 19.56 19.56 0 0 1 -8.1 1.46z"/><path d="m110.78 268.42v-12h18.63v-4.52h-18.63v-11.41h20.92v-4.62h-26.24v37.17h26.98v-4.62z"/><path d="m141 273v-37.13h4.36l24.64 30.53h-2.28v-30.53h5.28v37.13h-4.36l-24.57-30.5h2.29v30.5z"/><path d="m195 273.46a25.25 25.25 0 0 1 -8.12-1.3 16.54 16.54 0 0 1 -6.11-3.37l2-4.14a17.26 17.26 0 0 0 5.42 3.08 19.66 19.66 0 0 0 6.81 1.27 15.67 15.67 0 0 0 5.26-.74 6.23 6.23 0 0 0 3-2 4.82 4.82 0 0 0 1-2.94 4 4 0 0 0 -1.25-3.09 9.39 9.39 0 0 0 -3.24-1.88 37 37 0 0 0 -4.38-1.25c-1.59-.35-3.2-.77-4.81-1.25a20.52 20.52 0 0 1 -4.4-1.83 9 9 0 0 1 -3.22-3 8.84 8.84 0 0 1 -1.22-4.86 9.75 9.75 0 0 1 1.52-5.28 10.42 10.42 0 0 1 4.67-3.88 19.29 19.29 0 0 1 8-1.46 24.69 24.69 0 0 1 6.43.85 17.88 17.88 0 0 1 5.52 2.44l-1.78 4.17a17.12 17.12 0 0 0 -5-2.31 19.74 19.74 0 0 0 -5.16-.72 14.24 14.24 0 0 0 -5.15.8 6.25 6.25 0 0 0 -2.94 2.13 5 5 0 0 0 -.93 3 4.08 4.08 0 0 0 1.24 3.13 9.08 9.08 0 0 0 3.24 1.86 43.24 43.24 0 0 0 4.39 1.25q2.38.56 4.8 1.25a20.77 20.77 0 0 1 4.41 1.8 9.1 9.1 0 0 1 3.21 3 8.5 8.5 0 0 1 1.22 4.78 9.53 9.53 0 0 1 -1.54 5.23 10.59 10.59 0 0 1 -4.79 3.8 19.5 19.5 0 0 1 -8.1 1.46z"/><path d="m224 273v-32.51h-12.75v-4.62h30.75v4.62h-12.74v32.51z"/><path d="m253.1 268.42v-12h18.64v-4.52h-18.64v-11.41h20.92v-4.62h-26.23v37.17h26.98v-4.62z"/><path d="m284.66 273v-37.13h5.34v37.13z"/><path d="m302 273v-37.13h4.35l24.59 30.53h-2.28v-30.53h5.3v37.13h-4.35l-24.61-30.5h2.29v30.5z"/><path d="m342.43 247.68v-11.81h5.31v11.81z"/><path d="m368.59 273.46a25.31 25.31 0 0 1 -8.13-1.3 16.62 16.62 0 0 1 -6.11-3.37l2-4.14a17 17 0 0 0 5.42 3.08 19.58 19.58 0 0 0 6.85 1.22 15.57 15.57 0 0 0 5.25-.74 6.26 6.26 0 0 0 3-2 4.87 4.87 0 0 0 .95-2.94 4 4 0 0 0 -1.24-3.09 9.58 9.58 0 0 0 -3.24-1.88 36.66 36.66 0 0 0 -4.44-1.3q-2.38-.53-4.8-1.25a20.82 20.82 0 0 1 -4.41-1.83 8.89 8.89 0 0 1 -3.21-3 8.76 8.76 0 0 1 -1.22-4.86 9.74 9.74 0 0 1 1.51-5.28 10.53 10.53 0 0 1 4.67-3.88 19.31 19.31 0 0 1 8.05-1.46 24.62 24.62 0 0 1 6.42.85 18 18 0 0 1 5.53 2.44l-1.76 4.27a17.12 17.12 0 0 0 -5-2.31 19.66 19.66 0 0 0 -5.15-.72 14.17 14.17 0 0 0 -5.15.8 6.23 6.23 0 0 0 -2.95 2.13 5 5 0 0 0 -.93 3 4.09 4.09 0 0 0 1.25 3.13 8.91 8.91 0 0 0 3.24 1.86 43.77 43.77 0 0 0 4.38 1.25q2.39.56 4.81 1.25a20.47 20.47 0 0 1 4.4 1.8 9.22 9.22 0 0 1 3.22 3 8.58 8.58 0 0 1 1.2 4.71 9.62 9.62 0 0 1 -1.54 5.23 10.64 10.64 0 0 1 -4.75 3.87 19.56 19.56 0 0 1 -8.12 1.46z"/><path d="m41.53 293v15.98h-21.35v-15.98h-5.31v37.17h5.31v-16.57h21.35v16.57h5.31v-37.17z"/><path d="m72.87 330.6a21.19 21.19 0 0 1 -7.87-1.44 18.7 18.7 0 0 1 -6.3-4 18.39 18.39 0 0 1 -4.14-6 19.85 19.85 0 0 1 0-15.09 18.39 18.39 0 0 1 4.14-6 18.77 18.77 0 0 1 6.3-4.07 21.16 21.16 0 0 1 7.91-1.44 21.44 21.44 0 0 1 7.82 1.44 18.7 18.7 0 0 1 6.27 4 18.08 18.08 0 0 1 4.11 6 20.41 20.41 0 0 1 0 15.16 18.16 18.16 0 0 1 -4.11 6 18.7 18.7 0 0 1 -6.27 4 21.44 21.44 0 0 1 -7.86 1.44zm-.05-4.73a15.18 15.18 0 0 0 5.76-1.06 13.65 13.65 0 0 0 4.57-3 13.93 13.93 0 0 0 3-4.54 14.52 14.52 0 0 0 1.09-5.68 14.23 14.23 0 0 0 -4.11-10.2 13.43 13.43 0 0 0 -4.57-3 16 16 0 0 0 -11.47 0 13.71 13.71 0 0 0 -4.59 3 14 14 0 0 0 -3.06 4.54 14.49 14.49 0 0 0 -1.09 5.66 14.7 14.7 0 0 0 1.09 5.68 13.73 13.73 0 0 0 3.06 4.54 13.94 13.94 0 0 0 4.59 3 15 15 0 0 0 5.73 1.06z"/><path d="m114.58 330.6q-7.33 0-11.53-4.2t-4.19-12.26v-21.14h5.31v20.92q0 6.21 2.73 9.08c1.82 1.92 4.4 2.87 7.73 2.87s6-.95 7.78-2.87 2.73-4.94 2.73-9.08v-20.92h5.16v21.14q0 8.07-4.17 12.26t-11.55 4.2z"/><path d="m151.06 330.6a25.53 25.53 0 0 1 -8.12-1.3 16.69 16.69 0 0 1 -6.11-3.38l2-4.14a17.1 17.1 0 0 0 5.41 3.08 19.43 19.43 0 0 0 6.85 1.22 15.38 15.38 0 0 0 5.26-.74 6.32 6.32 0 0 0 3-2 4.9 4.9 0 0 0 .95-2.95 4 4 0 0 0 -1.25-3.08 9.24 9.24 0 0 0 -3.24-1.89 34.29 34.29 0 0 0 -4.38-1.24q-2.38-.54-4.8-1.25a21.15 21.15 0 0 1 -4.41-1.84 8.89 8.89 0 0 1 -3.21-3 8.71 8.71 0 0 1 -1.23-4.86 9.75 9.75 0 0 1 1.52-5.28 10.54 10.54 0 0 1 4.67-3.88 19.31 19.31 0 0 1 8.05-1.46 25.05 25.05 0 0 1 6.42.85 17.66 17.66 0 0 1 5.52 2.45l-1.75 4.24a17.12 17.12 0 0 0 -5-2.31 20.07 20.07 0 0 0 -5.15-.71 14.28 14.28 0 0 0 -5.16.79 6.25 6.25 0 0 0 -2.94 2.13 5 5 0 0 0 -.93 3 4.08 4.08 0 0 0 1.25 3.14 9 9 0 0 0 3.24 1.85 42.29 42.29 0 0 0 4.38 1.25q2.38.55 4.8 1.25a20.28 20.28 0 0 1 4.41 1.81 9 9 0 0 1 3.21 3 8.5 8.5 0 0 1 1.23 4.78 9.52 9.52 0 0 1 -1.55 5.23 10.67 10.67 0 0 1 -4.75 3.88 19.66 19.66 0 0 1 -8.19 1.36z"/><path d="m178.85 325.55v-12h18.64v-4.51h-18.64v-11.42h20.93v-4.62h-26.24v37.17h26.98v-4.62z"/></g></svg>