<?xml version="1.0" encoding="utf-8"?>
<!-- Generator: Adobe Illustrator 25.4.5, SVG Export Plug-In . SVG Version: 6.00 Build 0)  -->
<svg version="1.1" id="Ebene_1" xmlns="http://www.w3.org/2000/svg" xmlns:xlink="http://www.w3.org/1999/xlink" x="0px" y="0px"
	 viewBox="0 0 40 40" style="enable-background:new 0 0 40 40;" xml:space="preserve">
<style type="text/css">
	.st0{fill:#EF693D;}
	.st1{enable-background:new    ;}
	.st2{fill:#FCD65C;}
	.st3{fill:#8A995E;}
	.st4{fill:#764570;}
	.st5{fill:#24648C;}
</style>
<g>
	<path class="st0" d="M20,1c10.5,0,19,8.5,19,19s-8.5,19-19,19S1,30.5,1,20S9.5,1,20,1 M20,0C9,0,0,9,0,20s9,20,20,20s20-9,20-20
		S31,0,20,0L20,0z"/>
</g>
<g class="st1">
	<path class="st2" d="M20,3.5c9.1,0,16.5,7.4,16.5,16.5S29.1,36.5,20,36.5S3.5,29.1,3.5,20S10.9,3.5,20,3.5 M20,2.5
		C10.3,2.5,2.5,10.3,2.5,20S10.3,37.5,20,37.5S37.5,29.7,37.5,20S29.7,2.5,20,2.5L20,2.5z"/>
</g>
<g>
	<path class="st3" d="M20,6c7.7,0,14,6.3,14,14s-6.3,14-14,14S6,27.7,6,20S12.3,6,20,6 M20,5C11.7,5,5,11.7,5,20s6.7,15,15,15
		s15-6.7,15-15S28.3,5,20,5L20,5z"/>
</g>
<g>
	<path class="st4" d="M20,8.5c6.3,0,11.5,5.2,11.5,11.5S26.3,31.5,20,31.5S8.5,26.3,8.5,20S13.7,8.5,20,8.5 M20,7.5
		C13.1,7.5,7.5,13.1,7.5,20S13.1,32.5,20,32.5S32.5,26.9,32.5,20S26.9,7.5,20,7.5L20,7.5z"/>
</g>
<g>
	<path class="st5" d="M20,11c5,0,9,4,9,9s-4,9-9,9s-9-4-9-9S15,11,20,11 M20,10c-5.5,0-10,4.5-10,10s4.5,10,10,10s10-4.5,10-10
		S25.5,10,20,10L20,10z"/>
</g>
<g class="st1">
	<g>
		<path class="st2" d="M20,13.5c3.6,0,6.5,2.9,6.5,6.5s-2.9,6.5-6.5,6.5s-6.5-2.9-6.5-6.5S16.4,13.5,20,13.5 M20,12.5
			c-4.1,0-7.5,3.4-7.5,7.5s3.4,7.5,7.5,7.5s7.5-3.4,7.5-7.5S24.1,12.5,20,12.5L20,12.5z"/>
	</g>
</g>
</svg>
