<?xml version="1.0" encoding="utf-8"?>
<!-- Generator: Adobe Illustrator 25.4.5, SVG Export Plug-In . SVG Version: 6.00 Build 0)  -->
<svg version="1.1" id="Layer_1" xmlns="http://www.w3.org/2000/svg" xmlns:xlink="http://www.w3.org/1999/xlink" x="0px" y="0px"
	 viewBox="0 0 20 20" style="enable-background:new 0 0 20 20;" xml:space="preserve">
<style type="text/css">
	.st0{fill:none;stroke:#000000;stroke-width:0.75;stroke-linecap:round;}
	.st1{fill:none;stroke:#000000;stroke-width:0.75;}
</style>
<path class="st0" d="M6.7,10.6v3.8H4c0,0-1-0.3-1-1.4v-2.4 M6.7,14.3c0,0,3.8,2.7,4.1,2.9c0.4,0.2,1.9,0.8,1.9-1.3
	c0-2.1,0-5.3,0-5.3 M6.7,10.6V6.8H4c0,0-1,0.3-1,1.4v2.4 M6.7,6.9c0,0,3.8-2.7,4.1-2.9c0.4-0.2,1.9-0.8,1.9,1.3c0,2.1,0,5.3,0,5.3"
	/>
<path class="st1" d="M14,7.5c0,0,3.1,2.9,0,6.2 M15.6,6.5c0,0,3.7,3.6,0,7.9"/>
<g>
	<path d="M10,0.8c5.1,0,9.2,4.1,9.2,9.2s-4.1,9.2-9.2,9.2c-5.1,0-9.3-4.1-9.3-9.2S4.9,0.8,10,0.8 M10,0C4.5,0,0,4.5,0,10
		s4.5,10,10,10c5.5,0,10-4.5,10-10S15.5,0,10,0L10,0z"/>
</g>
</svg>
