<svg id="Layer_1" data-name="Layer 1" xmlns="http://www.w3.org/2000/svg" viewBox="0 0 850.39 849.74"><defs><style>.cls-1,.cls-2{fill:none;stroke:#000;stroke-width:33px;}.cls-2{stroke-linecap:round;}</style></defs><path class="cls-1" d="M13.32,174V329.88H-94.36s-40.21-12.93-40.21-58.24V174M-2,325.29s171.29,112.14,183.1,119c14.4,8.31,78.67,33.35,77.05-53.18-1.61-85.94.71-217.26.71-217.26m-245.5-.05V17.84H-94.36s-40.21,12.93-40.21,58.24v97.67M-2,22.42S169.25-89.71,181.06-96.52c14.4-8.31,78.67-33.35,77.05,53.18-1.61,85.94.71,217.26.71,217.26" transform="translate(276 275)"/><path class="cls-2" d="M312.2,46s126.52,117.16,0,255.11M376.29,8.57s151.28,147.44,0,322.2" transform="translate(276 275)"/><path class="cls-1" d="M149.2,558.24c225.71,0,408.69-182.84,408.69-408.37S374.91-258.5,149.2-258.5-259.5-75.67-259.5,149.87s183,408.37,408.7,408.37Z" transform="translate(276 275)"/></svg>