<?xml version="1.0" encoding="utf-8"?>
<!-- Generator: Adobe Illustrator 25.4.5, SVG Export Plug-In . SVG Version: 6.00 Build 0)  -->
<svg version="1.1" id="Layer_1" xmlns="http://www.w3.org/2000/svg" xmlns:xlink="http://www.w3.org/1999/xlink" x="0px" y="0px"
	 viewBox="0 0 20 20" style="enable-background:new 0 0 20 20;" xml:space="preserve">
<style type="text/css">
	
		.st0{clip-path:url(#SVGID_00000138572248947253827810000007106665185671991433_);fill:none;stroke:#000000;stroke-width:0.75;stroke-linecap:round;}
	.st1{fill:none;stroke:#000000;stroke-width:0.75;}
</style>
<g>
	<defs>
		<rect id="SVGID_1_" width="20" height="20"/>
	</defs>
	<clipPath id="SVGID_00000099640670628396061720000012453350001260583353_">
		<use xlink:href="#SVGID_1_"  style="overflow:visible;"/>
	</clipPath>
	
		<path style="clip-path:url(#SVGID_00000099640670628396061720000012453350001260583353_);fill:none;stroke:#000000;stroke-width:0.75;stroke-linecap:round;" d="
		M6.7,10.6v3.8H4c0,0-1-0.3-1-1.4v-2.4 M6.7,14.3c0,0,3.8,2.7,4.1,2.9c0.4,0.2,1.9,0.8,1.9-1.3c0-2.1,0-5.3,0-5.3 M6.7,10.6V6.8H4
		c0,0-1,0.3-1,1.4v2.4 M6.7,6.9c0,0,3.8-2.7,4.1-2.9c0.4-0.2,1.9-0.8,1.9,1.3c0,2.1,0,5.3,0,5.3"/>
</g>
<path class="st1" d="M14.2,8.6l3,3.2 M17.3,8.6l-3.1,3.2"/>
<g>
	<path d="M10,0.8c5.1,0,9.2,4.1,9.2,9.2c0,5.1-4.1,9.3-9.2,9.3c-5.1,0-9.3-4.1-9.3-9.2C0.8,4.9,4.9,0.8,10,0.8 M10,0
		C4.5,0,0,4.5,0,10s4.5,10,10,10c5.5,0,10-4.5,10-10S15.5,0,10,0L10,0z"/>
</g>
</svg>
