<?xml version="1.0" encoding="utf-8"?>
<!-- Generator: Adobe Illustrator 25.4.5, SVG Export Plug-In . SVG Version: 6.00 Build 0)  -->
<svg version="1.1" id="Layer_1" xmlns="http://www.w3.org/2000/svg" xmlns:xlink="http://www.w3.org/1999/xlink" x="0px" y="0px"
	 viewBox="0 0 20 20" style="enable-background:new 0 0 20 20;" xml:space="preserve">
<style type="text/css">
	.st0{fill:none;stroke:#000000;stroke-width:0.75;}
</style>
<path class="st0" d="M8.3,14.4c0,0-0.2-2.1-1-2.9c-1-0.9-1.4-5,2.5-5s3.5,4.1,2.5,5c-0.9,0.8-1,2.9-1,2.9"/>
<g>
	<path d="M10,0.8c5.1,0,9.3,4.1,9.3,9.2c0,5.1-4.2,9.3-9.3,9.3S0.7,15.1,0.7,10C0.7,4.9,4.9,0.8,10,0.8 M10,0C4.5,0,0,4.5,0,10
		c0,5.5,4.5,10,10,10s10-4.5,10-10C20,4.5,15.5,0,10,0L10,0z"/>
</g>
<path class="st0" d="M12.8,12.5l2.5,2.5 M6.8,12.5L4.3,15 M13.9,9.8h3.6 M5.8,9.8H2.2 M12.8,6.5L15.3,4 M6.8,6.5L4.3,4 M9.8,5.3V1.8
	"/>
<line class="st0" x1="8" y1="16.5" x2="11.6" y2="16.5"/>
<line class="st0" x1="8.6" y1="17.7" x2="11" y2="17.7"/>
<line class="st0" x1="8" y1="15.3" x2="11.6" y2="15.3"/>
</svg>
