<?xml version="1.0" encoding="utf-8"?>
<!-- Generator: Adobe Illustrator 25.3.0, SVG Export Plug-In . SVG Version: 6.00 Build 0)  -->
<svg version="1.1" id="Layer_1" xmlns="http://www.w3.org/2000/svg" xmlns:xlink="http://www.w3.org/1999/xlink" x="0px" y="0px"
	 viewBox="0 0 850.4 849.7" style="enable-background:new 0 0 850.4 849.7;" xml:space="preserve">
<style type="text/css">
	.st0{fill:none;stroke:#000000;stroke-width:33;}
	.st1{fill:none;stroke:#000000;stroke-width:21;}
</style>
<path class="st0" d="M483.5,622.6c0,0,7-93.2,46.4-129.1c46-42,62.3-215.7-112.7-225 M350.9,622.6c0,0-7-93.2-46.4-129.1
	c-46-42-62.3-215.7,112.7-225"/>
<path class="st1" d="M416.6,648.7H491 M418.9,649h-74.4 M416.6,686H491 M418.9,686.4h-74.4 M416.6,724.6H491 M418.9,725h-74.4
	 M416.6,760.6h37.2 M418.9,760.9h-37.2"/>
<path class="st0" d="M547.4,536.5l108.1,106.8 M288.1,536.9L180,643.7 M593.5,419.7h154.9 M242,420H87.2 M547.1,276.1l108.8-107.4
	 M288.4,276.5L179.6,169.1 M417.5,227.4V72.5 M425.2,833.2c225.7,0,408.7-182.8,408.7-408.4S650.9,16.5,425.2,16.5
	S16.5,199.3,16.5,424.9S199.5,833.2,425.2,833.2L425.2,833.2z"/>
</svg>
